SplineFontDB: 3.0
FontName: Untitled1
FullName: Untitled1
FamilyName: Untitled1
Weight: Book
Copyright: Copyright (c) 2018, Martin Allfrey
Version: 001.000
ItalicAngle: 0
UnderlinePosition: -150
UnderlineWidth: 50
Ascent: 800
Descent: 200
InvalidEm: 0
sfntRevision: 0x00010000
LayerCount: 2
Layer: 0 1 "Back" 1
Layer: 1 1 "Fore" 0
XUID: [1021 871 216909462 24259]
StyleMap: 0x0000
FSType: 0
OS2Version: 4
OS2_WeightWidthSlopeOnly: 0
OS2_UseTypoMetrics: 1
CreationTime: 1518350268
ModificationTime: 1518489097
PfmFamily: 17
TTFWeight: 400
TTFWidth: 5
LineGap: 90
VLineGap: 0
Panose: 2 0 5 9 0 0 0 0 0 0
OS2TypoAscent: 800
OS2TypoAOffset: 0
OS2TypoDescent: -200
OS2TypoDOffset: 0
OS2TypoLinegap: 90
OS2WinAscent: 756
OS2WinAOffset: 0
OS2WinDescent: 180
OS2WinDOffset: 0
HheadAscent: 756
HheadAOffset: 0
HheadDescent: -180
HheadDOffset: 0
OS2SubXSize: 650
OS2SubYSize: 699
OS2SubXOff: 0
OS2SubYOff: 140
OS2SupXSize: 650
OS2SupYSize: 699
OS2SupXOff: 0
OS2SupYOff: 479
OS2StrikeYSize: 49
OS2StrikeYPos: 258
OS2CapHeight: 736
OS2XHeight: 406
OS2Vendor: 'PfEd'
OS2CodePages: 00000001.00000000
OS2UnicodeRanges: 00000003.00000000.00000000.00000000
DEI: 91125
ShortTable: cvt  2
  33
  633
EndShort
ShortTable: maxp 16
  1
  0
  91
  36
  3
  0
  0
  2
  0
  1
  1
  0
  64
  46
  0
  0
EndShort
LangName: 1033 "" "" "Regular" "FontForge 2.0 : Untitled1 : 11-2-2018"
GaspTable: 1 65535 2 0
Encoding: UnicodeBmp
UnicodeInterp: none
NameList: AGL For New Fonts
DisplaySize: -48
AntiAlias: 1
FitToEm: 0
WidthSeparation: 150
WinInfo: 64 16 5
BeginChars: 65538 92

StartChar: .notdef
Encoding: 65536 -1 0
Width: 1000
Flags: W
LayerCount: 2
Fore
SplineSet
33 0 m 1,0,-1
 33 666 l 1,1,-1
 298 666 l 1,2,-1
 298 0 l 1,3,-1
 33 0 l 1,0,-1
66 33 m 1,4,-1
 265 33 l 1,5,-1
 265 633 l 1,6,-1
 66 633 l 1,7,-1
 66 33 l 1,4,-1
EndSplineSet
Validated: 1
EndChar

StartChar: uni0000
Encoding: 0 -1 1
AltUni2: 000000.ffffffff.0
Width: 1000
Flags: W
LayerCount: 2
Fore
SplineSet
431 87 m 1,0,-1
 512 99 l 1,1,-1
 515 15 l 1,2,-1
 413 30 l 1,3,-1
 431 87 l 1,0,-1
161 531 m 1,4,-1
 344 720 l 1,5,-1
 668 642 l 1,6,-1
 707 462 l 1,7,-1
 515 327 l 1,8,-1
 518 135 l 1,9,-1
 410 123 l 1,10,-1
 395 330 l 1,11,-1
 524 474 l 1,12,-1
 473 561 l 1,13,-1
 305 507 l 1,14,-1
 161 531 l 1,4,-1
EndSplineSet
Validated: 1
EndChar

StartChar: exclam
Encoding: 33 33 3
Width: 1000
Flags: W
LayerCount: 2
Fore
SplineSet
335 99 m 1,0,-1
 500 108 l 1,1,-1
 518 33 l 1,2,-1
 350 18 l 1,3,-1
 335 99 l 1,0,-1
332 735 m 1,4,-1
 485 735 l 1,5,-1
 530 162 l 1,6,-1
 320 189 l 1,7,-1
 332 735 l 1,4,-1
EndSplineSet
Validated: 1
EndChar

StartChar: quotedbl
Encoding: 34 34 4
Width: 1000
Flags: W
LayerCount: 2
Fore
SplineSet
494 579 m 1,0,-1
 479 675 l 1,1,-1
 563 693 l 1,2,-1
 572 585 l 1,3,-1
 494 579 l 1,0,-1
188 564 m 1,4,-1
 200 720 l 1,5,-1
 296 678 l 1,6,-1
 326 573 l 1,7,-1
 188 564 l 1,4,-1
EndSplineSet
Validated: 1
EndChar

StartChar: quotesingle
Encoding: 39 39 5
Width: 1000
Flags: W
LayerCount: 2
Fore
SplineSet
353 594 m 1,0,-1
 374 756 l 1,1,-1
 470 738 l 1,2,-1
 503 570 l 1,3,-1
 353 594 l 1,0,-1
EndSplineSet
Validated: 1
EndChar

StartChar: parenleft
Encoding: 40 40 6
Width: 1000
Flags: W
LayerCount: 2
Fore
SplineSet
443 732 m 1,0,-1
 518 648 l 1,1,-1
 368 534 l 1,2,-1
 341 381 l 1,3,-1
 347 237 l 1,4,-1
 431 102 l 1,5,-1
 470 96 l 1,6,-1
 485 33 l 1,7,-1
 350 33 l 1,8,-1
 266 165 l 1,9,-1
 212 372 l 1,10,-1
 266 558 l 1,11,-1
 443 732 l 1,0,-1
EndSplineSet
Validated: 1
EndChar

StartChar: parenright
Encoding: 41 41 7
Width: 1000
Flags: W
LayerCount: 2
Fore
SplineSet
434 738 m 1,0,-1
 518 630 l 1,1,-1
 581 501 l 1,2,-1
 602 321 l 1,3,-1
 578 177 l 1,4,-1
 494 78 l 1,5,-1
 440 45 l 1,6,-1
 362 123 l 1,7,-1
 404 207 l 1,8,-1
 437 339 l 1,9,-1
 446 495 l 1,10,-1
 398 591 l 1,11,-1
 329 675 l 1,12,-1
 290 750 l 1,13,-1
 434 738 l 1,0,-1
EndSplineSet
Validated: 1
EndChar

StartChar: asterisk
Encoding: 42 42 8
Width: 1000
Flags: W
LayerCount: 2
Fore
SplineSet
326 405 m 1,0,-1
 326 474 l 1,1,-1
 437 507 l 1,2,-1
 458 399 l 1,3,-1
 554 441 l 1,4,-1
 635 360 l 1,5,-1
 512 312 l 1,6,-1
 656 285 l 1,7,-1
 647 189 l 1,8,-1
 479 231 l 1,9,-1
 548 129 l 1,10,-1
 467 72 l 1,11,-1
 368 207 l 1,12,-1
 365 90 l 1,13,-1
 233 120 l 1,14,-1
 293 225 l 1,15,-1
 134 210 l 1,16,-1
 137 324 l 1,17,-1
 290 312 l 1,18,-1
 206 444 l 1,19,-1
 284 462 l 1,20,-1
 326 405 l 1,0,-1
EndSplineSet
Validated: 1
EndChar

StartChar: plus
Encoding: 43 43 9
Width: 1000
Flags: W
LayerCount: 2
Fore
SplineSet
137 462 m 1,0,-1
 341 438 l 1,1,-1
 323 672 l 1,2,-1
 461 660 l 1,3,-1
 443 429 l 1,4,-1
 761 441 l 1,5,-1
 737 324 l 1,6,-1
 473 342 l 1,7,-1
 506 120 l 1,8,-1
 359 111 l 1,9,-1
 341 333 l 1,10,-1
 137 372 l 1,11,-1
 137 462 l 1,0,-1
EndSplineSet
Validated: 1
EndChar

StartChar: comma
Encoding: 44 44 10
Width: 1000
Flags: W
LayerCount: 2
Fore
SplineSet
215 -48 m 1,0,-1
 287 111 l 1,1,-1
 371 87 l 1,2,-1
 323 -51 l 1,3,-1
 215 -48 l 1,0,-1
EndSplineSet
Validated: 1
EndChar

StartChar: hyphen
Encoding: 45 45 11
Width: 1000
Flags: W
LayerCount: 2
Fore
SplineSet
161 321 m 1,0,-1
 200 468 l 1,1,-1
 707 438 l 1,2,-1
 674 324 l 1,3,-1
 161 321 l 1,0,-1
EndSplineSet
Validated: 1
EndChar

StartChar: period
Encoding: 46 46 12
Width: 1000
Flags: W
LayerCount: 2
Fore
SplineSet
302 81 m 1,0,-1
 341 201 l 1,1,-1
 449 201 l 1,2,-1
 407 93 l 1,3,-1
 302 81 l 1,0,-1
EndSplineSet
Validated: 1
EndChar

StartChar: slash
Encoding: 47 47 13
Width: 1000
Flags: W
LayerCount: 2
Fore
SplineSet
146 162 m 1,0,-1
 494 756 l 1,1,-1
 617 750 l 1,2,-1
 317 111 l 1,3,-1
 146 162 l 1,0,-1
EndSplineSet
Validated: 1
EndChar

StartChar: zero
Encoding: 48 48 14
Width: 1000
Flags: W
LayerCount: 2
Fore
SplineSet
419 609 m 1,0,-1
 293 531 l 1,1,-1
 257 381 l 1,2,-1
 302 204 l 1,3,-1
 476 213 l 1,4,-1
 557 393 l 1,5,-1
 419 609 l 1,0,-1
116 513 m 1,6,-1
 236 696 l 1,7,-1
 470 708 l 1,8,-1
 671 576 l 1,9,-1
 704 381 l 1,10,-1
 656 150 l 1,11,-1
 518 60 l 1,12,-1
 263 54 l 1,13,-1
 128 252 l 1,14,-1
 116 513 l 1,6,-1
EndSplineSet
Validated: 1
EndChar

StartChar: one
Encoding: 49 49 15
Width: 1000
Flags: W
LayerCount: 2
Fore
SplineSet
218 624 m 1,0,-1
 401 735 l 1,1,-1
 503 750 l 1,2,-1
 554 156 l 1,3,-1
 818 180 l 1,4,-1
 761 33 l 1,5,-1
 278 66 l 1,6,-1
 272 186 l 1,7,-1
 410 201 l 1,8,-1
 413 567 l 1,9,-1
 242 537 l 1,10,-1
 218 624 l 1,0,-1
EndSplineSet
Validated: 1
EndChar

StartChar: two
Encoding: 50 50 16
Width: 1000
Flags: W
LayerCount: 2
Fore
SplineSet
101 543 m 1,0,-1
 185 657 l 1,1,-1
 332 702 l 1,2,-1
 494 726 l 1,3,-1
 734 612 l 1,4,-1
 716 492 l 1,5,-1
 671 366 l 1,6,-1
 515 276 l 1,7,-1
 350 174 l 1,8,-1
 593 153 l 1,9,-1
 743 165 l 1,10,-1
 737 57 l 1,11,-1
 170 90 l 1,12,-1
 164 267 l 1,13,-1
 422 429 l 1,14,-1
 524 501 l 1,15,-1
 473 594 l 1,16,-1
 389 642 l 1,17,-1
 260 561 l 1,18,-1
 170 486 l 1,19,-1
 101 543 l 1,0,-1
EndSplineSet
Validated: 1
EndChar

StartChar: three
Encoding: 51 51 17
Width: 1000
Flags: W
LayerCount: 2
Fore
SplineSet
92 591 m 1,0,-1
 314 681 l 1,1,-1
 509 681 l 1,2,-1
 587 606 l 1,3,-1
 545 501 l 1,4,-1
 404 459 l 1,5,-1
 356 366 l 1,6,-1
 542 297 l 1,7,-1
 638 243 l 1,8,-1
 584 153 l 1,9,-1
 455 93 l 1,10,-1
 254 75 l 1,11,-1
 128 123 l 1,12,-1
 146 249 l 1,13,-1
 269 213 l 1,14,-1
 410 222 l 1,15,-1
 311 291 l 1,16,-1
 245 351 l 1,17,-1
 134 369 l 1,18,-1
 140 468 l 1,19,-1
 317 522 l 1,20,-1
 413 555 l 1,21,-1
 416 609 l 1,22,-1
 254 615 l 1,23,-1
 158 561 l 1,24,-1
 95 573 l 1,25,-1
 92 591 l 1,0,-1
EndSplineSet
Validated: 1
EndChar

StartChar: four
Encoding: 52 52 18
Width: 1000
Flags: W
LayerCount: 2
Fore
SplineSet
437 513 m 1,0,-1
 302 363 l 1,1,-1
 473 360 l 1,2,-1
 437 513 l 1,0,-1
164 396 m 1,3,-1
 428 669 l 1,4,-1
 527 684 l 1,5,-1
 590 393 l 1,6,-1
 734 402 l 1,7,-1
 743 243 l 1,8,-1
 590 258 l 1,9,-1
 617 111 l 1,10,-1
 764 54 l 1,11,-1
 674 0 l 1,12,-1
 419 15 l 1,13,-1
 416 102 l 1,14,-1
 551 129 l 1,15,-1
 530 249 l 1,16,-1
 191 276 l 1,17,-1
 164 396 l 1,3,-1
EndSplineSet
Validated: 1
EndChar

StartChar: five
Encoding: 53 53 19
Width: 1000
Flags: W
LayerCount: 2
Fore
SplineSet
341 681 m 1,0,-1
 704 672 l 1,1,-1
 671 585 l 1,2,-1
 383 576 l 1,3,-1
 359 423 l 1,4,-1
 587 423 l 1,5,-1
 644 369 l 1,6,-1
 740 255 l 1,7,-1
 683 186 l 1,8,-1
 608 84 l 1,9,-1
 443 39 l 1,10,-1
 281 96 l 1,11,-1
 278 174 l 1,12,-1
 389 210 l 1,13,-1
 527 219 l 1,14,-1
 563 291 l 1,15,-1
 455 330 l 1,16,-1
 326 297 l 1,17,-1
 251 357 l 1,18,-1
 266 513 l 1,19,-1
 341 681 l 1,0,-1
EndSplineSet
Validated: 1
EndChar

StartChar: six
Encoding: 54 54 20
Width: 1000
Flags: W
LayerCount: 2
Fore
SplineSet
407 210 m 1,0,-1
 404 273 l 1,1,-1
 290 348 l 1,2,-1
 254 228 l 1,3,-1
 407 210 l 1,0,-1
248 63 m 1,4,-1
 83 222 l 1,5,-1
 119 411 l 1,6,-1
 203 570 l 1,7,-1
 326 678 l 1,8,-1
 482 708 l 1,9,-1
 707 645 l 1,10,-1
 734 546 l 1,11,-1
 680 489 l 1,12,-1
 611 543 l 1,13,-1
 488 615 l 1,14,-1
 395 561 l 1,15,-1
 359 507 l 1,16,-1
 350 450 l 1,17,-1
 506 411 l 1,18,-1
 605 390 l 1,19,-1
 659 336 l 1,20,-1
 623 237 l 1,21,-1
 563 138 l 1,22,-1
 491 117 l 1,23,-1
 341 69 l 1,24,-1
 248 63 l 1,4,-1
EndSplineSet
Validated: 1
EndChar

StartChar: seven
Encoding: 55 55 21
Width: 1000
Flags: W
LayerCount: 2
Fore
SplineSet
149 720 m 1,0,-1
 767 726 l 1,1,-1
 785 612 l 1,2,-1
 407 66 l 1,3,-1
 275 102 l 1,4,-1
 575 561 l 1,5,-1
 212 543 l 1,6,-1
 149 720 l 1,0,-1
EndSplineSet
Validated: 1
EndChar

StartChar: eight
Encoding: 56 56 22
Width: 1000
Flags: W
LayerCount: 2
Fore
SplineSet
404 300 m 1,0,-1
 266 249 l 1,1,-1
 374 180 l 1,2,-1
 530 189 l 1,3,-1
 404 300 l 1,0,-1
401 477 m 1,4,-1
 491 597 l 1,5,-1
 422 609 l 1,6,-1
 272 543 l 1,7,-1
 401 477 l 1,4,-1
101 504 m 1,8,-1
 338 696 l 1,9,-1
 515 741 l 1,10,-1
 596 705 l 1,11,-1
 629 630 l 1,12,-1
 677 507 l 1,13,-1
 620 459 l 1,14,-1
 638 363 l 1,15,-1
 731 249 l 1,16,-1
 719 159 l 1,17,-1
 638 111 l 1,18,-1
 530 81 l 1,19,-1
 368 66 l 1,20,-1
 230 63 l 1,21,-1
 110 120 l 1,22,-1
 68 285 l 1,23,-1
 188 351 l 1,24,-1
 257 405 l 1,25,-1
 206 441 l 1,26,-1
 128 489 l 1,27,-1
 101 504 l 1,8,-1
EndSplineSet
Validated: 1
EndChar

StartChar: nine
Encoding: 57 57 23
Width: 1000
Flags: W
LayerCount: 2
Fore
SplineSet
422 462 m 1,0,-1
 467 615 l 1,1,-1
 320 648 l 1,2,-1
 224 579 l 1,3,-1
 215 462 l 1,4,-1
 335 447 l 1,5,-1
 422 462 l 1,0,-1
152 402 m 1,6,-1
 107 618 l 1,7,-1
 278 732 l 1,8,-1
 374 726 l 1,9,-1
 644 693 l 1,10,-1
 662 567 l 1,11,-1
 659 456 l 1,12,-1
 626 279 l 1,13,-1
 533 138 l 1,14,-1
 350 57 l 1,15,-1
 179 54 l 1,16,-1
 113 132 l 1,17,-1
 116 228 l 1,18,-1
 272 180 l 1,19,-1
 410 192 l 1,20,-1
 467 312 l 1,21,-1
 506 423 l 1,22,-1
 404 336 l 1,23,-1
 314 279 l 1,24,-1
 191 303 l 1,25,-1
 152 402 l 1,6,-1
EndSplineSet
Validated: 1
EndChar

StartChar: colon
Encoding: 58 58 24
Width: 1000
Flags: W
LayerCount: 2
Fore
SplineSet
362 195 m 1,0,-1
 389 351 l 1,1,-1
 479 336 l 1,2,-1
 512 225 l 1,3,-1
 362 195 l 1,0,-1
308 504 m 1,4,-1
 332 648 l 1,5,-1
 479 597 l 1,6,-1
 503 498 l 1,7,-1
 308 504 l 1,4,-1
EndSplineSet
Validated: 1
EndChar

StartChar: semicolon
Encoding: 59 59 25
Width: 1000
Flags: W
LayerCount: 2
Fore
SplineSet
329 114 m 1,0,-1
 428 84 l 1,1,-1
 263 -117 l 1,2,-1
 200 -66 l 1,3,-1
 329 114 l 1,0,-1
338 450 m 1,4,-1
 323 597 l 1,5,-1
 434 585 l 1,6,-1
 476 447 l 1,7,-1
 338 450 l 1,4,-1
EndSplineSet
Validated: 1
EndChar

StartChar: less
Encoding: 60 60 26
Width: 1000
Flags: W
LayerCount: 2
Fore
SplineSet
467 663 m 1,0,-1
 557 561 l 1,1,-1
 320 360 l 1,2,-1
 641 165 l 1,3,-1
 563 48 l 1,4,-1
 119 333 l 1,5,-1
 467 663 l 1,0,-1
EndSplineSet
Validated: 1
EndChar

StartChar: equal
Encoding: 61 61 27
Width: 1000
Flags: W
LayerCount: 2
Fore
SplineSet
194 156 m 1,0,-1
 209 336 l 1,1,-1
 767 336 l 1,2,-1
 719 129 l 1,3,-1
 194 156 l 1,0,-1
173 543 m 1,4,-1
 191 636 l 1,5,-1
 764 651 l 1,6,-1
 776 510 l 1,7,-1
 200 531 l 1,8,-1
 173 543 l 1,4,-1
EndSplineSet
Validated: 1
EndChar

StartChar: greater
Encoding: 62 62 28
Width: 1000
Flags: W
LayerCount: 2
Fore
SplineSet
353 693 m 1,0,-1
 689 345 l 1,1,-1
 260 90 l 1,2,-1
 110 237 l 1,3,-1
 287 357 l 1,4,-1
 176 579 l 1,5,-1
 353 693 l 1,0,-1
EndSplineSet
Validated: 1
EndChar

StartChar: question
Encoding: 63 63 29
Width: 1000
Flags: W
LayerCount: 2
Fore
SplineSet
311 93 m 1,0,-1
 422 96 l 1,1,-1
 413 0 l 1,2,-1
 299 27 l 1,3,-1
 311 93 l 1,0,-1
104 522 m 1,4,-1
 350 651 l 1,5,-1
 515 657 l 1,6,-1
 614 498 l 1,7,-1
 473 300 l 1,8,-1
 437 129 l 1,9,-1
 284 117 l 1,10,-1
 332 315 l 1,11,-1
 452 558 l 1,12,-1
 260 450 l 1,13,-1
 119 459 l 1,14,-1
 104 522 l 1,4,-1
EndSplineSet
Validated: 1
EndChar

StartChar: at
Encoding: 64 64 30
Width: 1000
Flags: W
LayerCount: 2
Fore
SplineSet
262 285 m 1,0,-1
 310 331 l 1,1,-1
 256 399 l 1,2,-1
 188 351 l 1,3,-1
 262 285 l 1,0,-1
380 503 m 1,4,-1
 388 391 l 1,5,-1
 378 237 l 1,6,-1
 284 227 l 1,7,-1
 152 291 l 1,8,-1
 134 409 l 1,9,-1
 192 461 l 1,10,-1
 304 423 l 1,11,-1
 290 533 l 1,12,-1
 190 539 l 1,13,-1
 120 473 l 1,14,-1
 98 355 l 1,15,-1
 136 255 l 1,16,-1
 240 171 l 1,17,-1
 416 175 l 1,18,-1
 486 247 l 1,19,-1
 474 405 l 1,20,-1
 424 581 l 1,21,-1
 268 675 l 1,22,-1
 170 657 l 1,23,-1
 150 707 l 1,24,-1
 270 709 l 1,25,-1
 400 661 l 1,26,-1
 502 553 l 1,27,-1
 532 361 l 1,28,-1
 502 179 l 1,29,-1
 332 123 l 1,30,-1
 188 127 l 1,31,-1
 38 229 l 1,32,-1
 68 445 l 1,33,-1
 148 589 l 1,34,-1
 288 597 l 1,35,-1
 380 503 l 1,4,-1
EndSplineSet
Validated: 1
EndChar

StartChar: A
Encoding: 65 65 31
Width: 685
Flags: W
LayerCount: 2
Fore
SplineSet
341 510 m 1,0,-1
 299 417 l 1,1,-1
 398 402 l 1,2,-1
 341 510 l 1,0,-1
53 81 m 1,3,-1
 365 729 l 1,4,-1
 647 60 l 1,5,-1
 539 51 l 1,6,-1
 413 300 l 1,7,-1
 275 312 l 1,8,-1
 173 75 l 1,9,-1
 53 81 l 1,3,-1
EndSplineSet
Validated: 1
EndChar

StartChar: B
Encoding: 66 66 32
Width: 595
Flags: W
LayerCount: 2
Fore
SplineSet
191 120 m 1,0,-1
 389 195 l 1,1,-1
 305 294 l 1,2,-1
 179 303 l 1,3,-1
 191 120 l 1,0,-1
197 426 m 1,4,-1
 401 495 l 1,5,-1
 263 603 l 1,6,-1
 173 591 l 1,7,-1
 197 426 l 1,4,-1
79 720 m 1,8,-1
 400 708 l 1,9,-1
 532 513 l 1,10,-1
 394 375 l 1,11,-1
 529 210 l 1,12,-1
 388 36 l 1,13,-1
 52 60 l 1,14,-1
 79 720 l 1,8,-1
EndSplineSet
Validated: 1
EndChar

StartChar: C
Encoding: 67 67 33
Width: 733
Flags: W
LayerCount: 2
Fore
SplineSet
650 615 m 1,0,-1
 644 516 l 1,1,-1
 395 645 l 1,2,-1
 191 543 l 1,3,-1
 191 294 l 1,4,-1
 374 153 l 1,5,-1
 623 261 l 1,6,-1
 698 192 l 1,7,-1
 365 30 l 1,8,-1
 53 255 l 1,9,-1
 89 612 l 1,10,-1
 404 756 l 1,11,-1
 650 615 l 1,0,-1
EndSplineSet
Validated: 1
EndChar

StartChar: D
Encoding: 68 68 34
Width: 733
Flags: W
LayerCount: 2
Fore
SplineSet
293 269 m 1,0,-1
 496 308 l 5,1,-1
 437 584 l 1,2,-1
 269 602 l 1,3,-1
 293 269 l 1,0,-1
85 74 m 1,4,-1
 101 695 l 1,5,-1
 482 710 l 1,6,-1
 596 587 l 1,7,-1
 674 422 l 1,8,-1
 650 263 l 1,9,-1
 535 95 l 1,10,-1
 310 83 l 1,11,-1
 85 74 l 1,4,-1
EndSplineSet
Validated: 1
EndChar

StartChar: E
Encoding: 69 69 35
Width: 613
Flags: W
LayerCount: 2
Fore
SplineSet
65 96 m 1,0,-1
 53 723 l 1,1,-1
 530 732 l 1,2,-1
 536 624 l 1,3,-1
 182 612 l 1,4,-1
 200 474 l 1,5,-1
 530 459 l 1,6,-1
 542 342 l 1,7,-1
 218 330 l 1,8,-1
 215 183 l 1,9,-1
 512 162 l 1,10,-1
 551 93 l 1,11,-1
 65 96 l 1,0,-1
EndSplineSet
Validated: 1
EndChar

StartChar: F
Encoding: 70 70 36
Width: 625
Flags: W
LayerCount: 2
Fore
SplineSet
32 699 m 1,0,-1
 551 711 l 1,1,-1
 557 594 l 1,2,-1
 206 582 l 1,3,-1
 209 444 l 1,4,-1
 545 468 l 1,5,-1
 554 384 l 1,6,-1
 215 351 l 1,7,-1
 197 69 l 1,8,-1
 65 78 l 1,9,-1
 32 699 l 1,0,-1
EndSplineSet
Validated: 1
EndChar

StartChar: G
Encoding: 71 71 37
Width: 841
Flags: W
LayerCount: 2
Fore
SplineSet
716 600 m 1,0,-1
 662 549 l 1,1,-1
 485 615 l 1,2,-1
 323 624 l 1,3,-1
 173 477 l 1,4,-1
 212 237 l 1,5,-1
 428 162 l 1,6,-1
 500 231 l 1,7,-1
 416 273 l 1,8,-1
 404 366 l 1,9,-1
 749 345 l 1,10,-1
 779 225 l 1,11,-1
 614 207 l 1,12,-1
 524 48 l 1,13,-1
 230 69 l 1,14,-1
 50 294 l 1,15,-1
 95 576 l 1,16,-1
 245 735 l 1,17,-1
 512 735 l 1,18,-1
 716 600 l 1,0,-1
EndSplineSet
Validated: 1
EndChar

StartChar: H
Encoding: 72 72 38
Width: 712
Flags: W
LayerCount: 2
Fore
SplineSet
59 705 m 1,0,-1
 212 714 l 1,1,-1
 227 474 l 1,2,-1
 506 486 l 1,3,-1
 527 726 l 1,4,-1
 647 723 l 1,5,-1
 653 57 l 1,6,-1
 512 60 l 1,7,-1
 494 333 l 1,8,-1
 245 366 l 1,9,-1
 245 99 l 1,10,-1
 110 111 l 1,11,-1
 59 705 l 1,0,-1
EndSplineSet
Validated: 1
EndChar

StartChar: I
Encoding: 73 73 39
Width: 754
Flags: W
LayerCount: 2
Fore
SplineSet
143 696 m 1,0,-1
 725 723 l 1,1,-1
 716 594 l 1,2,-1
 491 597 l 1,3,-1
 473 159 l 1,4,-1
 686 168 l 1,5,-1
 689 78 l 1,6,-1
 26 72 l 1,7,-1
 41 201 l 1,8,-1
 296 210 l 1,9,-1
 305 555 l 1,10,-1
 68 579 l 1,11,-1
 143 696 l 1,0,-1
EndSplineSet
Validated: 1
EndChar

StartChar: J
Encoding: 74 74 40
Width: 802
Flags: W
LayerCount: 2
Fore
SplineSet
92 750 m 1,0,-1
 764 750 l 1,1,-1
 758 627 l 1,2,-1
 518 618 l 1,3,-1
 485 135 l 1,4,-1
 329 54 l 1,5,-1
 53 138 l 1,6,-1
 29 300 l 1,7,-1
 128 306 l 1,8,-1
 206 198 l 1,9,-1
 344 186 l 1,10,-1
 371 615 l 1,11,-1
 110 627 l 1,12,-1
 92 750 l 1,0,-1
EndSplineSet
Validated: 1
EndChar

StartChar: K
Encoding: 75 75 41
Width: 637
Flags: W
LayerCount: 2
Fore
SplineSet
65 720 m 1,0,-1
 203 720 l 1,1,-1
 221 540 l 1,2,-1
 509 711 l 1,3,-1
 584 654 l 1,4,-1
 299 423 l 1,5,-1
 536 237 l 1,6,-1
 584 126 l 1,7,-1
 248 270 l 1,8,-1
 251 105 l 1,9,-1
 134 87 l 1,10,-1
 65 720 l 1,0,-1
EndSplineSet
Validated: 1
EndChar

StartChar: L
Encoding: 76 76 42
Width: 640
Flags: W
LayerCount: 2
Fore
SplineSet
35 702 m 1,0,-1
 164 714 l 1,1,-1
 215 204 l 1,2,-1
 590 207 l 1,3,-1
 581 69 l 1,4,-1
 53 102 l 1,5,-1
 35 702 l 1,0,-1
EndSplineSet
Validated: 1
EndChar

StartChar: M
Encoding: 77 77 43
Width: 901
Flags: W
LayerCount: 2
Fore
SplineSet
35 93 m 1,0,-1
 161 696 l 1,1,-1
 383 714 l 1,2,-1
 413 498 l 1,3,-1
 578 711 l 1,4,-1
 761 708 l 1,5,-1
 836 90 l 1,6,-1
 683 90 l 1,7,-1
 650 528 l 1,8,-1
 452 357 l 1,9,-1
 353 369 l 1,10,-1
 281 546 l 1,11,-1
 164 93 l 1,12,-1
 35 93 l 1,0,-1
EndSplineSet
Validated: 1
EndChar

StartChar: N
Encoding: 78 78 44
Width: 802
Flags: W
LayerCount: 2
Fore
SplineSet
83 48 m 1,0,-1
 134 696 l 1,1,-1
 317 699 l 1,2,-1
 491 369 l 1,3,-1
 689 729 l 1,4,-1
 764 714 l 1,5,-1
 653 63 l 1,6,-1
 461 81 l 1,7,-1
 266 471 l 1,8,-1
 239 84 l 1,9,-1
 83 48 l 1,0,-1
EndSplineSet
Validated: 1
EndChar

StartChar: O
Encoding: 79 79 45
Width: 805
Flags: W
LayerCount: 2
Fore
SplineSet
383 627 m 1,0,-1
 224 579 l 1,1,-1
 206 348 l 1,2,-1
 308 189 l 1,3,-1
 539 213 l 1,4,-1
 554 405 l 1,5,-1
 530 576 l 1,6,-1
 383 627 l 1,0,-1
107 678 m 1,7,-1
 371 732 l 1,8,-1
 569 669 l 1,9,-1
 755 477 l 1,10,-1
 758 162 l 1,11,-1
 509 84 l 1,12,-1
 212 66 l 1,13,-1
 62 318 l 1,14,-1
 41 540 l 1,15,-1
 107 678 l 1,7,-1
EndSplineSet
Validated: 1
EndChar

StartChar: P
Encoding: 80 80 46
Width: 589
Flags: W
LayerCount: 2
Fore
SplineSet
353 666 m 1,0,-1
 173 624 l 1,1,-1
 188 528 l 1,2,-1
 353 558 l 1,3,-1
 353 666 l 1,0,-1
53 708 m 1,4,-1
 431 729 l 1,5,-1
 539 570 l 1,6,-1
 449 411 l 1,7,-1
 221 417 l 1,8,-1
 161 63 l 1,9,-1
 35 63 l 1,10,-1
 53 708 l 1,4,-1
EndSplineSet
Validated: 1
EndChar

StartChar: Q
Encoding: 81 81 47
Width: 807
Flags: W
LayerCount: 2
Fore
SplineSet
421 381 m 1,0,-1
 493 288 l 1,1,-1
 574 390 l 1,2,-1
 475 528 l 1,3,-1
 337 639 l 1,4,-1
 211 501 l 1,5,-1
 184 318 l 1,6,-1
 334 216 l 1,7,-1
 328 342 l 1,8,-1
 421 381 l 1,0,-1
340 729 m 1,9,-1
 556 648 l 1,10,-1
 763 519 l 1,11,-1
 697 345 l 1,12,-1
 538 219 l 1,13,-1
 676 105 l 1,14,-1
 577 63 l 1,15,-1
 430 156 l 1,16,-1
 274 108 l 1,17,-1
 160 180 l 1,18,-1
 43 396 l 1,19,-1
 103 642 l 1,20,-1
 340 729 l 1,9,-1
EndSplineSet
Validated: 1
EndChar

StartChar: R
Encoding: 82 82 48
Width: 661
Flags: W
LayerCount: 2
Fore
SplineSet
281 504 m 1,0,-1
 470 549 l 1,1,-1
 443 639 l 1,2,-1
 266 672 l 1,3,-1
 281 504 l 1,0,-1
152 747 m 1,4,-1
 458 747 l 1,5,-1
 611 633 l 1,6,-1
 611 459 l 1,7,-1
 458 411 l 1,8,-1
 329 399 l 1,9,-1
 536 75 l 1,10,-1
 344 72 l 1,11,-1
 230 327 l 1,12,-1
 218 108 l 1,13,-1
 38 102 l 1,14,-1
 152 747 l 1,4,-1
EndSplineSet
Validated: 1
EndChar

StartChar: S
Encoding: 83 83 49
Width: 694
Flags: W
LayerCount: 2
Fore
SplineSet
662 522 m 1,0,-1
 569 453 l 1,1,-1
 407 597 l 1,2,-1
 233 549 l 1,3,-1
 329 411 l 1,4,-1
 524 339 l 1,5,-1
 467 177 l 1,6,-1
 359 78 l 1,7,-1
 98 66 l 1,8,-1
 35 147 l 1,9,-1
 206 165 l 1,10,-1
 338 222 l 1,11,-1
 257 273 l 1,12,-1
 161 387 l 1,13,-1
 110 501 l 1,14,-1
 74 633 l 1,15,-1
 209 747 l 1,16,-1
 500 714 l 1,17,-1
 662 522 l 1,0,-1
EndSplineSet
Validated: 1
EndChar

StartChar: T
Encoding: 84 84 50
Width: 757
Flags: W
LayerCount: 2
Fore
SplineSet
23 729 m 1,0,-1
 695 720 l 1,1,-1
 710 573 l 1,2,-1
 404 534 l 1,3,-1
 383 108 l 1,4,-1
 200 99 l 1,5,-1
 242 516 l 1,6,-1
 29 555 l 1,7,-1
 23 729 l 1,0,-1
EndSplineSet
Validated: 1
EndChar

StartChar: U
Encoding: 85 85 51
Width: 826
Flags: W
LayerCount: 2
Fore
SplineSet
47 723 m 1,0,-1
 197 726 l 1,1,-1
 293 261 l 1,2,-1
 410 174 l 1,3,-1
 545 255 l 1,4,-1
 587 675 l 1,5,-1
 731 684 l 1,6,-1
 776 492 l 1,7,-1
 746 186 l 1,8,-1
 638 69 l 1,9,-1
 377 54 l 1,10,-1
 188 75 l 1,11,-1
 83 129 l 1,12,-1
 62 408 l 1,13,-1
 47 723 l 1,0,-1
EndSplineSet
Validated: 1
EndChar

StartChar: V
Encoding: 86 86 52
Width: 877
Flags: W
LayerCount: 2
Fore
SplineSet
41 720 m 1,0,-1
 194 726 l 1,1,-1
 452 204 l 1,2,-1
 683 714 l 1,3,-1
 839 717 l 1,4,-1
 644 54 l 1,5,-1
 254 63 l 1,6,-1
 41 720 l 1,0,-1
EndSplineSet
Validated: 1
EndChar

StartChar: W
Encoding: 87 87 53
Width: 937
Flags: W
LayerCount: 2
Fore
SplineSet
38 732 m 1,0,-1
 170 732 l 1,1,-1
 320 216 l 1,2,-1
 443 489 l 1,3,-1
 515 501 l 1,4,-1
 620 234 l 1,5,-1
 731 672 l 1,6,-1
 881 705 l 1,7,-1
 782 99 l 1,8,-1
 530 60 l 1,9,-1
 458 255 l 1,10,-1
 383 102 l 1,11,-1
 212 129 l 1,12,-1
 38 732 l 1,0,-1
EndSplineSet
Validated: 1
EndChar

StartChar: X
Encoding: 88 88 54
Width: 844
Flags: W
LayerCount: 2
Fore
SplineSet
59 654 m 1,0,-1
 167 720 l 1,1,-1
 392 477 l 1,2,-1
 665 723 l 1,3,-1
 797 654 l 1,4,-1
 518 393 l 1,5,-1
 629 273 l 1,6,-1
 785 99 l 1,7,-1
 629 63 l 1,8,-1
 401 285 l 1,9,-1
 143 63 l 1,10,-1
 38 153 l 1,11,-1
 287 381 l 1,12,-1
 59 654 l 1,0,-1
EndSplineSet
Validated: 1
EndChar

StartChar: Y
Encoding: 89 89 55
Width: 775
Flags: W
LayerCount: 2
Fore
SplineSet
14 702 m 1,0,-1
 143 708 l 1,1,-1
 314 435 l 1,2,-1
 563 705 l 1,3,-1
 740 705 l 1,4,-1
 419 351 l 1,5,-1
 380 45 l 1,6,-1
 194 39 l 1,7,-1
 221 339 l 1,8,-1
 14 702 l 1,0,-1
EndSplineSet
Validated: 1
EndChar

StartChar: Z
Encoding: 90 90 56
Width: 775
Flags: W
LayerCount: 2
Fore
SplineSet
104 744 m 1,0,-1
 701 723 l 1,1,-1
 734 594 l 1,2,-1
 299 183 l 1,3,-1
 683 180 l 1,4,-1
 677 54 l 1,5,-1
 38 81 l 1,6,-1
 482 588 l 1,7,-1
 128 621 l 1,8,-1
 104 744 l 1,0,-1
EndSplineSet
Validated: 1
EndChar

StartChar: bracketleft
Encoding: 91 91 57
Width: 607
Flags: W
LayerCount: 2
Fore
SplineSet
497 735 m 1,0,-1
 518 627 l 1,1,-1
 251 546 l 1,2,-1
 176 195 l 1,3,-1
 539 162 l 1,4,-1
 557 60 l 1,5,-1
 53 72 l 1,6,-1
 59 717 l 1,7,-1
 497 735 l 1,0,-1
EndSplineSet
Validated: 1
EndChar

StartChar: backslash
Encoding: 92 92 58
Width: 661
Flags: W
LayerCount: 2
Fore
SplineSet
17 717 m 1,0,-1
 206 732 l 1,1,-1
 614 102 l 1,2,-1
 404 78 l 1,3,-1
 17 717 l 1,0,-1
EndSplineSet
Validated: 1
EndChar

StartChar: bracketright
Encoding: 93 93 59
Width: 436
Flags: W
LayerCount: 2
Fore
SplineSet
83 747 m 1,0,-1
 362 738 l 1,1,-1
 377 66 l 1,2,-1
 68 57 l 1,3,-1
 89 228 l 1,4,-1
 215 225 l 1,5,-1
 194 561 l 1,6,-1
 50 618 l 1,7,-1
 83 747 l 1,0,-1
EndSplineSet
Validated: 1
EndChar

StartChar: asciicircum
Encoding: 94 94 60
Width: 1000
Flags: W
LayerCount: 2
Fore
SplineSet
251 582 m 1,0,-1
 440 753 l 1,1,-1
 683 570 l 1,2,-1
 512 570 l 1,3,-1
 440 627 l 1,4,-1
 392 573 l 1,5,-1
 251 582 l 1,0,-1
EndSplineSet
Validated: 1
EndChar

StartChar: underscore
Encoding: 95 95 61
Width: 1000
Flags: W
LayerCount: 2
Fore
SplineSet
161 135 m 1,0,-1
 821 144 l 1,1,-1
 830 51 l 1,2,-1
 128 51 l 1,3,-1
 161 135 l 1,0,-1
EndSplineSet
Validated: 1
EndChar

StartChar: grave
Encoding: 96 96 62
Width: 1000
Flags: W
LayerCount: 2
Fore
SplineSet
368 735 m 1,0,-1
 482 741 l 1,1,-1
 572 564 l 1,2,-1
 473 540 l 1,3,-1
 368 735 l 1,0,-1
EndSplineSet
Validated: 1
EndChar

StartChar: a
Encoding: 97 97 63
Width: 655
Flags: W
LayerCount: 2
Fore
SplineSet
260 354 m 1,0,-1
 182 279 l 1,1,-1
 200 150 l 1,2,-1
 335 159 l 1,3,-1
 347 246 l 1,4,-1
 260 354 l 1,0,-1
326 432 m 1,5,-1
 434 342 l 1,6,-1
 449 435 l 1,7,-1
 548 438 l 1,8,-1
 569 108 l 1,9,-1
 626 48 l 1,10,-1
 515 33 l 1,11,-1
 437 105 l 1,12,-1
 311 54 l 1,13,-1
 101 54 l 1,14,-1
 17 228 l 1,15,-1
 122 447 l 1,16,-1
 326 432 l 1,5,-1
EndSplineSet
Validated: 1
EndChar

StartChar: b
Encoding: 98 98 64
Width: 601
Flags: W
LayerCount: 2
Fore
SplineSet
416 348 m 1,0,-1
 341 294 l 1,1,-1
 395 216 l 1,2,-1
 470 276 l 1,3,-1
 416 348 l 1,0,-1
35 708 m 1,4,-1
 155 702 l 1,5,-1
 227 378 l 1,6,-1
 482 528 l 1,7,-1
 575 330 l 1,8,-1
 548 171 l 1,9,-1
 398 105 l 1,10,-1
 263 114 l 1,11,-1
 137 195 l 1,12,-1
 35 447 l 1,13,-1
 35 708 l 1,4,-1
EndSplineSet
Validated: 1
EndChar

StartChar: c
Encoding: 99 99 65
Width: 370
Flags: W
LayerCount: 2
Fore
SplineSet
59 345 m 1,0,-1
 182 393 l 1,1,-1
 284 351 l 1,2,-1
 332 312 l 1,3,-1
 347 234 l 1,4,-1
 263 249 l 1,5,-1
 182 282 l 1,6,-1
 125 204 l 1,7,-1
 224 138 l 1,8,-1
 341 120 l 1,9,-1
 344 48 l 1,10,-1
 233 42 l 1,11,-1
 107 84 l 1,12,-1
 20 195 l 1,13,-1
 59 345 l 1,0,-1
EndSplineSet
Validated: 1
EndChar

StartChar: d
Encoding: 100 100 66
Width: 550
Flags: W
LayerCount: 2
Fore
SplineSet
260 249 m 1,0,-1
 164 288 l 1,1,-1
 125 204 l 1,2,-1
 242 171 l 1,3,-1
 260 249 l 1,0,-1
17 252 m 1,4,-1
 113 363 l 1,5,-1
 257 339 l 1,6,-1
 341 270 l 1,7,-1
 383 570 l 1,8,-1
 416 756 l 1,9,-1
 506 747 l 1,10,-1
 518 501 l 1,11,-1
 443 276 l 1,12,-1
 464 51 l 1,13,-1
 365 51 l 1,14,-1
 338 141 l 1,15,-1
 248 60 l 1,16,-1
 119 72 l 1,17,-1
 32 177 l 1,18,-1
 17 252 l 1,4,-1
EndSplineSet
Validated: 1
EndChar

StartChar: e
Encoding: 101 101 67
Width: 454
Flags: W
LayerCount: 2
Fore
SplineSet
29 261 m 1,0,-1
 206 468 l 1,1,-1
 368 375 l 1,2,-1
 392 234 l 1,3,-1
 290 147 l 1,4,-1
 188 129 l 1,5,-1
 314 87 l 1,6,-1
 422 75 l 1,7,-1
 404 33 l 1,8,-1
 266 36 l 1,9,-1
 116 54 l 1,10,-1
 53 150 l 1,11,-1
 29 261 l 1,0,-1
134 213 m 1,12,-1
 305 234 l 1,13,-1
 206 351 l 1,14,-1
 134 213 l 1,12,-1
EndSplineSet
Validated: 1
EndChar

StartChar: f
Encoding: 102 102 68
Width: 421
Flags: W
LayerCount: 2
Fore
SplineSet
74 531 m 1,0,-1
 188 621 l 1,1,-1
 299 627 l 1,2,-1
 383 525 l 1,3,-1
 332 468 l 1,4,-1
 269 522 l 1,5,-1
 194 483 l 1,6,-1
 203 408 l 1,7,-1
 347 405 l 1,8,-1
 365 342 l 1,9,-1
 239 321 l 1,10,-1
 239 63 l 1,11,-1
 104 66 l 1,12,-1
 107 321 l 1,13,-1
 23 318 l 1,14,-1
 17 384 l 1,15,-1
 89 405 l 1,16,-1
 74 531 l 1,0,-1
EndSplineSet
Validated: 1
EndChar

StartChar: g
Encoding: 103 103 69
Width: 718
Flags: W
LayerCount: 2
Fore
SplineSet
323 285 m 1,0,-1
 191 255 l 1,1,-1
 206 153 l 1,2,-1
 314 153 l 1,3,-1
 323 285 l 1,0,-1
80 291 m 1,4,-1
 167 363 l 1,5,-1
 383 339 l 1,6,-1
 518 255 l 1,7,-1
 560 375 l 1,8,-1
 686 375 l 1,9,-1
 677 -84 l 1,10,-1
 599 -150 l 1,11,-1
 392 -180 l 1,12,-1
 203 -159 l 1,13,-1
 197 -81 l 1,14,-1
 362 -54 l 1,15,-1
 470 -18 l 1,16,-1
 473 84 l 1,17,-1
 356 75 l 1,18,-1
 266 0 l 1,19,-1
 98 75 l 1,20,-1
 23 213 l 1,21,-1
 80 291 l 1,4,-1
EndSplineSet
Validated: 1
EndChar

StartChar: h
Encoding: 104 104 70
Width: 634
Flags: W
LayerCount: 2
Fore
SplineSet
20 87 m 1,0,-1
 65 717 l 1,1,-1
 257 729 l 1,2,-1
 242 420 l 1,3,-1
 338 495 l 1,4,-1
 506 498 l 1,5,-1
 587 357 l 1,6,-1
 608 114 l 1,7,-1
 476 105 l 1,8,-1
 440 297 l 1,9,-1
 281 297 l 1,10,-1
 212 120 l 1,11,-1
 20 87 l 1,0,-1
EndSplineSet
Validated: 1
EndChar

StartChar: i
Encoding: 105 105 71
Width: 271
Flags: W
LayerCount: 2
Fore
SplineSet
20 366 m 1,0,-1
 134 366 l 1,1,-1
 173 120 l 1,2,-1
 245 105 l 1,3,-1
 245 30 l 1,4,-1
 59 36 l 1,5,-1
 20 366 l 1,0,-1
35 687 m 1,6,-1
 140 678 l 1,7,-1
 155 570 l 1,8,-1
 26 573 l 1,9,-1
 35 687 l 1,6,-1
EndSplineSet
Validated: 1
EndChar

StartChar: j
Encoding: 106 106 72
Width: 424
Flags: W
LayerCount: 2
Fore
SplineSet
239 264 m 1,0,-1
 350 279 l 1,1,-1
 365 0 l 1,2,-1
 311 -105 l 1,3,-1
 173 -153 l 1,4,-1
 35 -63 l 1,5,-1
 29 30 l 1,6,-1
 188 -15 l 1,7,-1
 260 135 l 1,8,-1
 239 264 l 1,0,-1
185 384 m 1,9,-1
 251 516 l 1,10,-1
 377 498 l 1,11,-1
 383 402 l 1,12,-1
 185 384 l 1,9,-1
EndSplineSet
Validated: 1
EndChar

StartChar: k
Encoding: 107 107 73
Width: 481
Flags: W
LayerCount: 2
Fore
SplineSet
29 648 m 1,0,-1
 149 639 l 1,1,-1
 179 348 l 1,2,-1
 386 429 l 1,3,-1
 440 345 l 1,4,-1
 314 270 l 1,5,-1
 389 114 l 1,6,-1
 350 66 l 1,7,-1
 218 183 l 1,8,-1
 215 63 l 1,9,-1
 53 69 l 1,10,-1
 29 648 l 1,0,-1
EndSplineSet
Validated: 1
EndChar

StartChar: l
Encoding: 108 108 74
Width: 526
Flags: W
LayerCount: 2
Fore
SplineSet
20 675 m 1,0,-1
 176 669 l 1,1,-1
 242 225 l 1,2,-1
 353 177 l 1,3,-1
 500 204 l 1,4,-1
 488 108 l 1,5,-1
 353 87 l 1,6,-1
 125 111 l 1,7,-1
 20 675 l 1,0,-1
EndSplineSet
Validated: 1
EndChar

StartChar: m
Encoding: 109 109 75
Width: 673
Flags: W
LayerCount: 2
Fore
SplineSet
20 162 m 1,0,-1
 44 495 l 1,1,-1
 152 495 l 1,2,-1
 185 387 l 1,3,-1
 317 489 l 1,4,-1
 392 387 l 1,5,-1
 539 480 l 1,6,-1
 647 132 l 1,7,-1
 521 147 l 1,8,-1
 452 318 l 1,9,-1
 377 279 l 1,10,-1
 389 156 l 1,11,-1
 296 180 l 1,12,-1
 302 363 l 1,13,-1
 179 291 l 1,14,-1
 149 165 l 1,15,-1
 20 162 l 1,0,-1
EndSplineSet
Validated: 1
EndChar

StartChar: n
Encoding: 110 110 76
Width: 616
Flags: W
LayerCount: 2
Fore
SplineSet
29 45 m 1,0,-1
 71 444 l 1,1,-1
 197 435 l 1,2,-1
 239 312 l 1,3,-1
 395 432 l 1,4,-1
 524 339 l 1,5,-1
 596 45 l 1,6,-1
 461 51 l 1,7,-1
 386 258 l 1,8,-1
 218 63 l 1,9,-1
 29 45 l 1,0,-1
EndSplineSet
Validated: 1
EndChar

StartChar: o
Encoding: 111 111 77
Width: 433
Flags: W
LayerCount: 2
Fore
SplineSet
194 315 m 1,0,-1
 107 255 l 1,1,-1
 155 177 l 1,2,-1
 230 162 l 1,3,-1
 299 222 l 1,4,-1
 281 291 l 1,5,-1
 194 315 l 1,0,-1
152 378 m 1,6,-1
 329 369 l 1,7,-1
 401 243 l 1,8,-1
 365 111 l 1,9,-1
 197 69 l 1,10,-1
 14 135 l 1,11,-1
 20 285 l 1,12,-1
 152 378 l 1,6,-1
EndSplineSet
Validated: 1
EndChar

StartChar: p
Encoding: 112 112 78
Width: 589
Flags: W
LayerCount: 2
Fore
SplineSet
416 282 m 1,0,-1
 341 198 l 1,1,-1
 428 168 l 1,2,-1
 416 282 l 1,0,-1
26 -141 m 1,3,-1
 38 369 l 1,4,-1
 218 384 l 1,5,-1
 254 297 l 1,6,-1
 488 414 l 1,7,-1
 536 279 l 1,8,-1
 551 123 l 1,9,-1
 425 51 l 1,10,-1
 254 114 l 1,11,-1
 194 147 l 1,12,-1
 152 -108 l 1,13,-1
 26 -141 l 1,3,-1
EndSplineSet
Validated: 1
EndChar

StartChar: q
Encoding: 113 113 79
Width: 544
Flags: W
LayerCount: 2
Fore
SplineSet
278 228 m 1,0,-1
 146 282 l 1,1,-1
 86 210 l 1,2,-1
 203 159 l 1,3,-1
 278 228 l 1,0,-1
98 42 m 1,4,-1
 8 183 l 1,5,-1
 74 327 l 1,6,-1
 287 324 l 1,7,-1
 356 237 l 1,8,-1
 395 348 l 1,9,-1
 509 336 l 1,10,-1
 509 -171 l 1,11,-1
 350 -177 l 1,12,-1
 356 144 l 1,13,-1
 302 84 l 1,14,-1
 215 27 l 1,15,-1
 98 42 l 1,4,-1
EndSplineSet
Validated: 1
EndChar

StartChar: r
Encoding: 114 114 80
Width: 499
Flags: W
LayerCount: 2
Fore
SplineSet
29 63 m 1,0,-1
 62 450 l 1,1,-1
 185 444 l 1,2,-1
 212 294 l 1,3,-1
 362 408 l 1,4,-1
 455 411 l 1,5,-1
 452 321 l 1,6,-1
 353 276 l 1,7,-1
 248 225 l 1,8,-1
 203 156 l 1,9,-1
 218 90 l 1,10,-1
 29 63 l 1,0,-1
EndSplineSet
Validated: 1
EndChar

StartChar: s
Encoding: 115 115 81
Width: 463
Flags: W
LayerCount: 2
Fore
SplineSet
71 345 m 1,0,-1
 146 405 l 1,1,-1
 245 405 l 1,2,-1
 422 345 l 1,3,-1
 377 264 l 1,4,-1
 266 294 l 1,5,-1
 167 291 l 1,6,-1
 212 240 l 1,7,-1
 281 225 l 1,8,-1
 350 216 l 1,9,-1
 362 168 l 1,10,-1
 347 105 l 1,11,-1
 281 54 l 1,12,-1
 158 45 l 1,13,-1
 29 63 l 1,14,-1
 56 147 l 1,15,-1
 173 135 l 1,16,-1
 227 162 l 1,17,-1
 176 204 l 1,18,-1
 68 252 l 1,19,-1
 71 345 l 1,0,-1
EndSplineSet
Validated: 1
EndChar

StartChar: t
Encoding: 116 116 82
Width: 358
Flags: W
LayerCount: 2
Fore
SplineSet
134 335 m 1,0,-1
 140 437 l 1,1,-1
 242 423 l 1,2,-1
 230 325 l 1,3,-1
 314 321 l 1,4,-1
 336 211 l 1,5,-1
 250 247 l 1,6,-1
 250 99 l 1,7,-1
 342 61 l 1,8,-1
 324 17 l 1,9,-1
 166 37 l 1,10,-1
 136 221 l 1,11,-1
 24 257 l 1,12,-1
 24 335 l 1,13,-1
 134 335 l 1,0,-1
EndSplineSet
Validated: 1
EndChar

StartChar: u
Encoding: 117 117 83
Width: 430
Flags: W
LayerCount: 2
Fore
SplineSet
20 339 m 1,0,-1
 80 345 l 1,1,-1
 164 111 l 1,2,-1
 278 102 l 1,3,-1
 293 333 l 1,4,-1
 395 348 l 1,5,-1
 395 30 l 1,6,-1
 305 33 l 1,7,-1
 278 69 l 1,8,-1
 218 51 l 1,9,-1
 131 36 l 1,10,-1
 26 183 l 1,11,-1
 20 339 l 1,0,-1
EndSplineSet
Validated: 1
EndChar

StartChar: v
Encoding: 118 118 84
Width: 550
Flags: W
LayerCount: 2
Fore
SplineSet
17 351 m 1,0,-1
 122 351 l 1,1,-1
 212 135 l 1,2,-1
 389 348 l 1,3,-1
 512 342 l 1,4,-1
 344 54 l 1,5,-1
 122 21 l 1,6,-1
 17 351 l 1,0,-1
EndSplineSet
Validated: 1
EndChar

StartChar: w
Encoding: 119 119 85
Width: 685
Flags: W
LayerCount: 2
Fore
SplineSet
14 387 m 1,0,-1
 131 390 l 1,1,-1
 215 171 l 1,2,-1
 317 291 l 1,3,-1
 386 291 l 1,4,-1
 443 132 l 1,5,-1
 569 399 l 1,6,-1
 659 378 l 1,7,-1
 503 33 l 1,8,-1
 383 27 l 1,9,-1
 356 165 l 1,10,-1
 251 60 l 1,11,-1
 140 48 l 1,12,-1
 14 387 l 1,0,-1
EndSplineSet
Validated: 1
EndChar

StartChar: x
Encoding: 120 120 86
Width: 487
Flags: W
LayerCount: 2
Fore
SplineSet
23 390 m 1,0,-1
 179 387 l 1,1,-1
 239 261 l 1,2,-1
 311 384 l 1,3,-1
 467 381 l 1,4,-1
 323 162 l 1,5,-1
 434 60 l 1,6,-1
 302 36 l 1,7,-1
 236 153 l 1,8,-1
 149 72 l 1,9,-1
 47 144 l 1,10,-1
 128 225 l 1,11,-1
 23 390 l 1,0,-1
EndSplineSet
Validated: 1
EndChar

StartChar: y
Encoding: 121 121 87
Width: 610
Flags: W
LayerCount: 2
Fore
SplineSet
90 417 m 1,0,-1
 267 441 l 1,1,-1
 390 232 l 1,2,-1
 501 426 l 1,3,-1
 582 337 l 1,4,-1
 501 139 l 1,5,-1
 410 -147 l 1,6,-1
 237 -171 l 5,7,-1
 203 -78 l 1,8,-1
 329 -39 l 1,9,-1
 300 148 l 1,10,-1
 90 417 l 1,0,-1
EndSplineSet
Validated: 1
EndChar

StartChar: z
Encoding: 122 122 88
Width: 385
Flags: W
LayerCount: 2
Fore
SplineSet
50 345 m 1,0,-1
 317 321 l 1,1,-1
 338 240 l 1,2,-1
 188 135 l 1,3,-1
 341 102 l 1,4,-1
 350 0 l 1,5,-1
 32 0 l 1,6,-1
 32 120 l 1,7,-1
 179 231 l 1,8,-1
 17 258 l 1,9,-1
 50 345 l 1,0,-1
EndSplineSet
Validated: 1
EndChar

StartChar: exclamdown
Encoding: 161 161 89
Width: 1000
Flags: W
LayerCount: 2
Fore
SplineSet
269 456 m 1,0,-1
 251 549 l 1,1,-1
 356 552 l 1,2,-1
 386 459 l 1,3,-1
 269 456 l 1,0,-1
299 54 m 1,4,-1
 281 357 l 1,5,-1
 377 369 l 1,6,-1
 410 54 l 1,7,-1
 299 54 l 1,4,-1
EndSplineSet
Validated: 1
EndChar

StartChar: uni00AD
Encoding: 173 173 90
Width: 1000
Flags: W
LayerCount: 2
Fore
SplineSet
221 384 m 1,0,-1
 221 486 l 1,1,-1
 716 456 l 1,2,-1
 716 378 l 1,3,-1
 221 384 l 1,0,-1
EndSplineSet
Validated: 1
EndChar

StartChar: braceleft
Encoding: 123 123 91
Width: 328
VWidth: 0
Flags: W
LayerCount: 2
Fore
SplineSet
262 711 m 25,0,-1
 295 663 l 25,1,-1
 178 504 l 25,2,-1
 208 399 l 25,3,-1
 160 282 l 25,4,-1
 274 45 l 25,5,-1
 190 27 l 25,6,-1
 76 270 l 25,7,-1
 115 342 l 25,8,-1
 28 414 l 25,9,-1
 136 435 l 25,10,-1
 115 519 l 25,11,-1
 196 711 l 25,12,-1
 262 711 l 25,0,-1
EndSplineSet
Validated: 1
EndChar
